<?xml version="1.0" encoding="UTF-8" standalone="no"?>
<!-- Generator: Adobe Illustrator 16.0.0, SVG Export Plug-In . SVG Version: 6.00 Build 0)  -->

<svg
   xmlns:dc="http://purl.org/dc/elements/1.1/"
   xmlns:cc="http://creativecommons.org/ns#"
   xmlns:rdf="http://www.w3.org/1999/02/22-rdf-syntax-ns#"
   xmlns:svg="http://www.w3.org/2000/svg"
   xmlns="http://www.w3.org/2000/svg"
   xmlns:sodipodi="http://sodipodi.sourceforge.net/DTD/sodipodi-0.dtd"
   xmlns:inkscape="http://www.inkscape.org/namespaces/inkscape"
   version="1.1"
   id="Capa_1"
   x="0px"
   y="0px"
   width="82.38px"
   height="82.38px"
   viewBox="0 0 82.38 82.38"
   style="enable-background:new 0 0 82.38 82.38;"
   xml:space="preserve"
   sodipodi:docname="logo-migascon-2.svg"
   inkscape:version="0.92.3 (2405546, 2018-03-11)"><metadata
   id="metadata41"><rdf:RDF><cc:Work
       rdf:about=""><dc:format>image/svg+xml</dc:format><dc:type
         rdf:resource="http://purl.org/dc/dcmitype/StillImage" /><dc:title /></cc:Work></rdf:RDF></metadata><defs
   id="defs39"><inkscape:path-effect
   vertical="false"
   scale_y_rel="false"
   is_visible="true"
   prop_scale="1"
   bendpath="M -22.344087,-11.224558 H 211.49791"
   id="path-effect2627"
   effect="bend_path" />
<inkscape:path-effect
   vertical="false"
   scale_y_rel="false"
   is_visible="true"
   prop_scale="1"
   bendpath="M 274.523,328.586 H 508.365"
   id="path-effect2627-0"
   effect="bend_path" /><inkscape:path-effect
   vertical="false"
   scale_y_rel="false"
   is_visible="true"
   prop_scale="1"
   bendpath="M 121.11467,426.66378 H 3643.8184"
   id="path-effect2627-8"
   effect="bend_path" /><inkscape:path-effect
   vertical="false"
   scale_y_rel="false"
   is_visible="true"
   prop_scale="1"
   bendpath="M 28.83262,365.1509 H 242.19041"
   id="path-effect2627-1"
   effect="bend_path" /><inkscape:path-effect
   effect="bend_path"
   id="path-effect2627-5"
   bendpath="M 274.523,328.586 H 508.365"
   prop_scale="1"
   is_visible="true"
   scale_y_rel="false"
   vertical="false" />
	
</defs><sodipodi:namedview
   pagecolor="#ffffff"
   bordercolor="#666666"
   borderopacity="1"
   objecttolerance="10"
   gridtolerance="10"
   guidetolerance="10"
   inkscape:pageopacity="0"
   inkscape:pageshadow="2"
   inkscape:window-width="1920"
   inkscape:window-height="1052"
   id="namedview37"
   showgrid="false"
   inkscape:zoom="7.6135438"
   inkscape:cx="-19.74026"
   inkscape:cy="35.183517"
   inkscape:window-x="0"
   inkscape:window-y="0"
   inkscape:window-maximized="1"
   inkscape:current-layer="text890" />

<path
   style="fill:#e6e6e6;fill-rule:evenodd;stroke:#e6e6e6;stroke-width:1px;stroke-linecap:butt;stroke-linejoin:miter;stroke-opacity:1"
   d="M 1.050759,59.131953 1.3134488,78.308306 83.009964,78.176961 82.747275,58.606574 68.956062,58.737919 c 0,0 0.709131,-6.73125 0,-9.982211 C 68.151893,45.069052 67.649403,42.191257 64.241895,38.463976 61.546472,35.515606 56.602471,35.718982 56.478299,32.731632 65.383558,21.628042 58.723057,4.4419287 41.897885,3.7689143 18.970793,6.0777385 21.495605,25.151954 26.268976,32.337598 c 1.380701,2.078452 -4.520953,3.224951 -6.260661,5.347699 -2.011495,2.454376 -3.744566,5.067483 -4.640964,8.312168 -1.158968,4.195106 -1.182104,13.003144 -1.182104,13.003144 z"
   id="path843"
   inkscape:connector-curvature="0"
   sodipodi:nodetypes="cccccssccssscc" /><g
   id="g6">
</g>
<g
   id="g8">
</g>
<g
   id="g10">
</g>
<g
   id="g12">
</g>
<g
   id="g14">
</g>
<g
   id="g16">
</g>
<g
   id="g18">
</g>
<g
   id="g20">
</g>
<g
   id="g22">
</g>
<g
   id="g24">
</g>
<g
   id="g26">
</g>
<g
   id="g28">
</g>
<g
   id="g30">
</g>
<g
   id="g32">
</g>
<g
   id="g34">
</g>
<path
   inkscape:connector-curvature="0"
   id="path2"
   d="M 3.7039429,61.321137 V 75.053561 H 80.157641 V 61.321137 H 18.11024 c -0.02877,-2.90544 0.484448,-6.189471 2.436161,-8.613149 1.720626,-2.136893 4.370241,-3.337365 7.881098,-3.588301 0.286771,0.51149 0.838967,0.870845 1.496035,0.870845 h 2.940098 c 0.947551,0 1.715986,-0.723082 1.715986,-1.61666 0,-0.893578 -0.768435,-1.617533 -1.715986,-1.617533 h -2.940098 c -0.767507,0 -1.393021,0.483511 -1.612043,1.137519 -3.891362,0.278041 -6.853734,1.641141 -8.809159,4.070939 -2.171664,2.69997 -2.742421,6.247178 -2.715508,9.353717 H 3.7039429 Z M 41.930792,36.394505 c -8.809159,0 -15.950591,-6.727192 -15.950591,-15.027326 0,-8.300134 7.141432,-15.0264509 15.950591,-15.0264509 8.810087,0 15.950591,6.7271919 15.950591,15.0273259 0,8.300134 -7.140504,15.026451 -15.950591,15.026451 z M 22.395099,54.159397 c 1.141516,-1.419058 2.825947,-2.278537 5.12754,-2.61341 0.683053,0.487009 1.520164,0.762427 2.400895,0.762427 h 2.940098 c 2.224563,0 4.036139,-1.705842 4.036139,-3.80339 0,-2.095799 -1.810648,-3.802516 -4.036139,-3.802516 h -2.940098 c -1.166574,0 -2.238485,0.474768 -2.981862,1.260802 -3.48487,0.447663 -6.297824,1.729449 -8.391531,3.816505 0.0065,-0.07782 0.0037,-0.157382 0.01114,-0.235198 l 0.734096,-3.440538 c 1.791159,-5.423547 6.457452,-9.657988 12.316303,-11.11814 2.70994,2.381709 6.331235,3.850605 10.319115,3.850605 3.988808,0 7.61196,-1.46977 10.319115,-3.850605 7.537714,1.877214 13.120004,8.338605 13.120004,16.019704 V 59.26206 H 20.53248 c 0.2348,-2.122029 0.865882,-3.864594 1.862619,-5.102663 z"
   style="stroke-width:0.90080166;stroke:#4d4d4d;fill:#4d4d4d" /><path
   inkscape:connector-curvature="0"
   style="fill:none;stroke:#000000;stroke-width:0.15277411px;stroke-linecap:butt;stroke-linejoin:miter;stroke-opacity:1"
   d="m 40.933694,76.920255 c 0.04823,0 0.09647,0 0,0 z"
   id="path4849" /><path
   style="fill:#ffffff;stroke:#ffffff;stroke-width:1.27898264;stroke-linecap:round;stroke-linejoin:round;stroke-miterlimit:4;stroke-dasharray:none;stroke-opacity:1"
   d="m 44.353254,51.325312 c 0.559609,0.233463 6.525152,-0.415988 6.214417,-0.629079 0.0084,-1.540269 -2.371366,-4.017869 -2.371366,-4.017869 -3.182308,0.0629 -5.108618,0.733457 -5.108618,0.958735 -0.200979,0 -0.395399,0.999486 1.270835,3.696952"
   id="path7004-0"
   inkscape:connector-curvature="0" /><rect
   style="opacity:0;fill:#000000;fill-opacity:1;stroke:#000000;stroke-width:0.19264813;stroke-miterlimit:4;stroke-dasharray:none;stroke-opacity:1"
   id="rect878"
   width="14.952616"
   height="10.380341"
   x="42.109921"
   y="44.327656" /><rect
   style="opacity:0;fill:#000000;fill-opacity:1;stroke:#000000;stroke-width:0.19264813;stroke-miterlimit:4;stroke-dasharray:none;stroke-opacity:1"
   id="rect880"
   width="9.0185051"
   height="7.4703712"
   x="44.205299"
   y="45.427944" /><path
   style="opacity:0;fill:#000000;fill-opacity:1;stroke:#000000;stroke-width:0.19264813;stroke-miterlimit:4;stroke-dasharray:none;stroke-opacity:1"
   id="path884"
   sodipodi:type="arc"
   sodipodi:cx="49.410217"
   sodipodi:cy="50.234463"
   sodipodi:rx="5.9257283"
   sodipodi:ry="5.3277063"
   sodipodi:start="0"
   sodipodi:end="3.1370548"
   sodipodi:open="true"
   d="M 55.335946,50.234463 A 5.9257283,5.3277063 0 0 1 49.423662,55.562155 5.9257283,5.3277063 0 0 1 43.48455,50.258639" /><flowRoot
   xml:space="preserve"
   id="flowRoot840"
   style="font-style:normal;font-weight:normal;font-size:40px;line-height:125%;font-family:sans-serif;letter-spacing:0px;word-spacing:0px;fill:#000000;fill-opacity:1;stroke:#000000;stroke-width:1px;stroke-linecap:butt;stroke-linejoin:miter;stroke-opacity:1"
   transform="matrix(0.02839696,0,0,0.02452517,43.870038,45.222719)"><flowRegion
     id="flowRegion842"
     style="fill:#000000;stroke:#000000"><rect
       id="rect844"
       width="241.43697"
       height="42.502354"
       x="65.52446"
       y="299.39099"
       style="fill:#000000;stroke:#000000" /></flowRegion><flowPara
     id="flowPara846">migasfree</flowPara></flowRoot><g
   aria-label="migascon"
   transform="scale(1.2216471,0.81856699)"
   style="font-style:normal;font-weight:normal;font-size:25.50773621px;line-height:125%;font-family:sans-serif;letter-spacing:0px;word-spacing:0px;fill:#ffffff;fill-opacity:1;stroke:#ffffff;stroke-width:0.63769341px;stroke-linecap:butt;stroke-linejoin:miter;stroke-opacity:1"
   id="text890"><path
     d="m 14.382689,81.785502 v 5.601499 h -1.25498 v -5.76985 q 0,-0.749928 -0.214265,-1.056021 -0.214265,-0.306092 -1.010107,-0.306092 -0.780536,0 -1.071325,0.352006 -0.275483,0.336702 -0.275483,0.979497 v 5.80046 H 9.301548 v -5.76985 q 0,-0.749928 -0.214265,-1.056021 -0.214265,-0.306092 -1.0101064,-0.306092 -0.7805367,0 -1.071325,0.352006 -0.2754835,0.336702 -0.2754835,0.979497 v 5.80046 H 5.4753874 v -7.958414 h 0.6887089 l 0.1989603,0.749927 q 0.2754836,-0.413225 0.7040136,-0.62749 0.4438346,-0.22957 0.7346229,-0.260179 0.2907882,-0.03061 0.7499275,-0.03061 1.239676,0 1.6988154,0.841755 0.612186,-0.841755 2.127345,-0.841755 1.270286,0 1.668206,0.780537 0.336702,0.673404 0.336702,1.744729 z"
     style="font-style:normal;font-variant:normal;font-weight:normal;font-stretch:condensed;font-size:15.30464268px;font-family:Strait;-inkscape-font-specification:'Strait, Condensed';font-variant-ligatures:normal;font-variant-caps:normal;font-variant-numeric:normal;font-feature-settings:normal;text-align:start;writing-mode:lr-tb;text-anchor:start;fill:#ffffff;stroke:#ffffff;stroke-width:0.63769341px"
     id="path844" /><path
     d="m 16.983762,79.428587 h 1.25498 v 7.958414 h -1.25498 z m 0.290788,-2.99971 q 0.107132,-0.0153 0.336702,-0.0153 0.22957,0 0.336702,0.0153 0.107133,0.0153 0.22957,0.09183 0.229569,0.107132 0.229569,0.535662 0,0.413226 -0.04591,0.581577 -0.04591,0.153046 -0.183655,0.229569 -0.122437,0.06122 -0.22957,0.07652 -0.107132,0.0153 -0.336702,0.0153 -0.22957,0 -0.336702,-0.0153 -0.107133,-0.0153 -0.22957,-0.07652 -0.229569,-0.122437 -0.229569,-0.535662 0,-0.42853 0.04591,-0.581577 0.04591,-0.168351 0.168352,-0.229569 0.137741,-0.07652 0.244874,-0.09183 z"
     style="font-style:normal;font-variant:normal;font-weight:normal;font-stretch:condensed;font-size:15.30464268px;font-family:Strait;-inkscape-font-specification:'Strait, Condensed';font-variant-ligatures:normal;font-variant-caps:normal;font-variant-numeric:normal;font-feature-settings:normal;text-align:start;writing-mode:lr-tb;text-anchor:start;fill:#ffffff;stroke:#ffffff;stroke-width:0.63769341px"
     id="path846" /><path
     d="m 24.846043,84.922954 v -4.499565 q -0.841756,-0.168351 -1.576378,-0.168351 -0.719319,0 -0.979498,0.290788 -0.244874,0.290788 -0.244874,1.147848 v 3.19867 q 0,0.749928 0.22957,1.056021 0.229569,0.306092 1.086629,0.306092 0.872365,0 1.178458,-0.336702 0.306093,-0.352006 0.306093,-0.994801 z m 0.07652,3.060928 v -1.346808 q -0.642795,0.596881 -2.004908,0.596881 -1.346809,0 -1.760034,-0.872365 -0.397921,-0.872365 -0.397921,-2.938491 0,-2.127346 0.22957,-2.739531 0.290788,-0.826451 0.749927,-1.071325 0.688709,-0.352007 1.805948,-0.352007 1.117239,0 2.632399,0.443834 v 8.233898 q 0,0.612186 -0.09183,0.994802 -0.07652,0.397921 -0.321398,0.749927 -0.474444,0.673405 -1.928385,0.673405 -1.453941,0 -2.647703,-0.581577 l 0.244875,-0.765232 q 1.040715,0.336702 1.928384,0.336702 0.88767,0 1.224372,-0.290788 0.336702,-0.275483 0.336702,-1.071325 z"
     style="font-style:normal;font-variant:normal;font-weight:normal;font-stretch:condensed;font-size:15.30464268px;font-family:Strait;-inkscape-font-specification:'Strait, Condensed';font-variant-ligatures:normal;font-variant-caps:normal;font-variant-numeric:normal;font-feature-settings:normal;text-align:start;writing-mode:lr-tb;text-anchor:start;fill:#ffffff;stroke:#ffffff;stroke-width:0.63769341px"
     id="path848" /><path
     d="m 33.945132,87.387001 h -0.688709 l -0.198961,-0.749927 q -0.367311,0.413225 -0.82645,0.642795 -0.45914,0.214265 -0.765233,0.244874 -0.306092,0.04591 -0.872364,0.04591 -0.550967,0 -0.979497,-0.198961 -0.42853,-0.19896 -0.642795,-0.596881 -0.336702,-0.642795 -0.336702,-1.729424 0,-1.377418 0.795841,-1.790643 0.321397,-0.153047 0.566272,-0.244875 0.260179,-0.09183 0.765232,-0.137742 0.520358,-0.04591 0.872365,-0.04591 0.367311,-0.0153 1.05602,-0.03061 V 81.64776 q 0,-0.795841 -0.336702,-1.071325 -0.336702,-0.290788 -1.224372,-0.290788 -0.887669,0 -1.928385,0.336702 l -0.244874,-0.765232 q 1.193762,-0.581577 2.525266,-0.581577 1.591683,0 2.050822,0.642795 0.244874,0.352007 0.321398,0.734623 0.09183,0.382616 0.09183,0.994802 z m -1.254981,-2.14265 v -1.576378 q -1.561074,0 -1.867167,0.122437 -0.290788,0.107133 -0.520357,0.22957 -0.413226,0.214265 -0.413226,0.841755 v 0.352007 q 0,0.749927 0.22957,1.05602 0.22957,0.306093 1.08663,0.306093 0.872364,0 1.178457,-0.336702 0.306093,-0.352007 0.306093,-0.994802 z"
     style="font-style:normal;font-variant:normal;font-weight:normal;font-stretch:condensed;font-size:15.30464268px;font-family:Strait;-inkscape-font-specification:'Strait, Condensed';font-variant-ligatures:normal;font-variant-caps:normal;font-variant-numeric:normal;font-feature-settings:normal;text-align:start;writing-mode:lr-tb;text-anchor:start;fill:#ffffff;stroke:#ffffff;stroke-width:0.63769341px"
     id="path850" /><path
     d="m 39.456237,82.948655 q 0.826451,0.107132 1.209067,0.612185 0.397921,0.505054 0.397921,1.622292 0,1.101935 -0.596881,1.74473 -0.581577,0.642795 -1.974299,0.642795 -1.377418,0 -2.418134,-0.505053 l 0.244874,-0.765233 q 1.377418,0.260179 2.127346,0.260179 0.749927,0 1.071325,-0.290788 0.321397,-0.306093 0.321397,-0.902974 0,-0.612186 -0.183656,-0.918278 -0.168351,-0.306093 -0.719318,-0.382616 l -1.239676,-0.168351 q -0.902974,-0.122438 -1.224371,-0.673405 -0.321398,-0.566272 -0.321398,-1.622292 0,-1.05602 0.612186,-1.698815 0.62749,-0.642795 1.698815,-0.642795 1.408027,0 2.37222,0.505053 l -0.22957,0.85706 q -1.239676,-0.290788 -1.928385,-0.290788 -0.673404,0 -0.994801,0.229569 -0.306093,0.22957 -0.306093,0.918279 0,0.688709 0.137741,0.948888 0.137742,0.260179 0.704014,0.352007 z"
     style="font-style:normal;font-variant:normal;font-weight:normal;font-stretch:condensed;font-size:15.30464268px;font-family:Strait;-inkscape-font-specification:'Strait, Condensed';font-variant-ligatures:normal;font-variant-caps:normal;font-variant-numeric:normal;font-feature-settings:normal;text-align:start;writing-mode:lr-tb;text-anchor:start;fill:#ffffff;stroke:#ffffff;stroke-width:0.63769341px"
     id="path852" /><path
     d="m 47.649005,79.627547 -0.244875,0.811146 q -0.673404,-0.168351 -1.362113,-0.168351 -0.688709,0 -1.010106,0.09183 -0.321398,0.09183 -0.45914,0.321398 -0.122437,0.229569 -0.153046,0.413225 -0.03061,0.183656 -0.03061,0.566272 v 3.489458 q 0,1.438637 1.469245,1.438637 0.596881,0 1.637597,-0.244875 l 0.183656,0.826451 q -0.872365,0.397921 -1.94369,0.397921 -0.734623,0 -1.193762,-0.168351 -0.443835,-0.153047 -0.642795,-0.352007 -0.183656,-0.19896 -0.321397,-0.367312 -0.137742,-0.168351 -0.22957,-0.489748 -0.07652,-0.321398 -0.122437,-0.550967 -0.04591,-0.244875 -0.06122,-0.673405 -0.04591,-0.734622 -0.04591,-1.377417 v -0.918279 q 0,-0.811146 0.06122,-1.163153 0.06122,-0.352007 0.122437,-0.658099 0.06122,-0.321398 0.168351,-0.474444 0.107133,-0.168351 0.244874,-0.382616 0.153047,-0.214265 0.352007,-0.321398 0.214265,-0.107132 0.474444,-0.214265 0.413225,-0.19896 1.331504,-0.19896 0.933583,0 1.775339,0.367311 z"
     style="font-style:normal;font-variant:normal;font-weight:normal;font-stretch:condensed;font-size:15.30464268px;font-family:Strait;-inkscape-font-specification:'Strait, Condensed';font-variant-ligatures:normal;font-variant-caps:normal;font-variant-numeric:normal;font-feature-settings:normal;text-align:start;writing-mode:lr-tb;text-anchor:start;fill:#ffffff;stroke:#ffffff;stroke-width:0.63769341px"
     id="path854" /><path
     d="m 52.90304,87.494134 q -0.367312,0.07652 -0.826451,0.07652 -0.459139,0 -0.826451,-0.07652 -0.367311,-0.06122 -0.642795,-0.137742 -0.275483,-0.09183 -0.489748,-0.290788 -0.198961,-0.214265 -0.336703,-0.367312 -0.137741,-0.168351 -0.229569,-0.505053 -0.09183,-0.336702 -0.137742,-0.550967 -0.04591,-0.22957 -0.07652,-0.688709 -0.03061,-0.459139 -0.03061,-0.719318 v -1.652902 q 0,-0.887669 0.07652,-1.239676 0.07652,-0.367311 0.168351,-0.704013 0.09183,-0.336703 0.229569,-0.489749 0.137742,-0.168351 0.336703,-0.367311 0.214265,-0.214265 0.489748,-0.290789 0.275484,-0.09183 0.642795,-0.153046 0.367312,-0.07652 0.826451,-0.07652 0.459139,0 0.826451,0.07652 0.367311,0.06122 0.642795,0.153046 0.275483,0.07652 0.489748,0.290789 0.214265,0.19896 0.352007,0.367311 0.137742,0.153046 0.22957,0.489749 0.09183,0.336702 0.137741,0.550967 0.04591,0.214265 0.07652,0.673404 0.03061,0.459139 0.03061,0.719318 0,0 0,1.652902 0,0.887669 -0.07652,1.25498 -0.07652,0.367312 -0.168351,0.704014 -0.09183,0.336702 -0.22957,0.505053 -0.137742,0.153047 -0.352007,0.367312 -0.214265,0.19896 -0.489748,0.290788 -0.275484,0.07652 -0.642795,0.137742 z m 0.658099,-2.326306 v -3.504763 q 0,-0.382616 -0.03061,-0.566272 -0.03061,-0.183656 -0.153047,-0.413225 -0.122437,-0.244875 -0.443834,-0.336703 -0.321398,-0.09183 -0.85706,-0.09183 -0.535663,0 -0.872365,0.09183 -0.321397,0.09183 -0.443834,0.336703 -0.122438,0.229569 -0.153047,0.413225 -0.03061,0.183656 -0.03061,0.566272 v 3.504763 q 0,0.382616 0.03061,0.566272 0.03061,0.183655 0.153047,0.42853 0.122437,0.229569 0.443834,0.321397 0.336702,0.09183 0.872365,0.09183 0.535662,0 0.85706,-0.09183 0.321397,-0.09183 0.443834,-0.321397 0.122438,-0.244875 0.153047,-0.42853 0.03061,-0.183656 0.03061,-0.566272 z"
     style="font-style:normal;font-variant:normal;font-weight:normal;font-stretch:condensed;font-size:15.30464268px;font-family:Strait;-inkscape-font-specification:'Strait, Condensed';font-variant-ligatures:normal;font-variant-caps:normal;font-variant-numeric:normal;font-feature-settings:normal;text-align:start;writing-mode:lr-tb;text-anchor:start;fill:#ffffff;stroke:#ffffff;stroke-width:0.63769341px"
     id="path856" /><path
     d="m 62.708294,81.785502 v 5.601499 h -1.254981 v -5.76985 q 0,-0.749928 -0.22957,-1.056021 -0.229569,-0.306092 -1.101934,-0.306092 -0.85706,0 -1.163153,0.352006 -0.306092,0.336702 -0.306092,0.979497 v 5.80046 h -1.254981 v -7.958414 h 0.688709 l 0.19896,0.749927 q 0.290788,-0.413225 0.765232,-0.62749 0.474444,-0.22957 0.780537,-0.260179 0.321397,-0.03061 0.887669,-0.03061 0.581577,0 1.010107,0.19896 0.42853,0.19896 0.62749,0.581577 0.352007,0.658099 0.352007,1.744729 z"
     style="font-style:normal;font-variant:normal;font-weight:normal;font-stretch:condensed;font-size:15.30464268px;font-family:Strait;-inkscape-font-specification:'Strait, Condensed';font-variant-ligatures:normal;font-variant-caps:normal;font-variant-numeric:normal;font-feature-settings:normal;text-align:start;writing-mode:lr-tb;text-anchor:start;fill:#ffffff;stroke:#ffffff;stroke-width:0.63769341px"
     id="path858" /></g>


</svg>